<svg width="198" height="21" viewBox="0 0 198 21" fill="none" xmlns="http://www.w3.org/2000/svg">
<path d="M2.76 4.57134C2.52 4.15534 2.296 3.81134 2.088 3.53934C1.896 3.26734 1.696 3.05934 1.488 2.91534C1.28 2.75534 1.056 2.65134 0.816 2.60334C0.576 2.53934 0.304 2.50734 0 2.50734V1.54734H8.064V2.50734C7.392 2.50734 6.92 2.57134 6.648 2.69934C6.376 2.82734 6.24 3.01934 6.24 3.27534C6.24 3.43534 6.288 3.62734 6.384 3.85134C6.48 4.07534 6.632 4.37934 6.84 4.76334L10.272 11.3153H10.368L13.392 6.27534C13.92 5.37934 14.288 4.71534 14.496 4.28334C14.704 3.83534 14.808 3.48334 14.808 3.22734C14.808 2.95534 14.68 2.77134 14.424 2.67534C14.184 2.56334 13.728 2.50734 13.056 2.50734V1.54734H19.08V2.50734C18.728 2.50734 18.408 2.56334 18.12 2.67534C17.832 2.78734 17.528 3.01134 17.208 3.34734C16.904 3.66734 16.552 4.12334 16.152 4.71534C15.768 5.29134 15.304 6.05134 14.76 6.99534L11.256 12.9953V15.4433C11.256 16.2433 11.288 16.8833 11.352 17.3633C11.432 17.8433 11.56 18.2113 11.736 18.4673C11.928 18.7073 12.184 18.8673 12.504 18.9473C12.824 19.0273 13.24 19.0673 13.752 19.0673V20.0273H5.208V19.0673C5.704 19.0673 6.112 19.0273 6.432 18.9473C6.768 18.8673 7.032 18.7073 7.224 18.4673C7.416 18.2273 7.544 17.8833 7.608 17.4353C7.688 16.9713 7.728 16.3633 7.728 15.6113V13.4033L2.76 4.57134Z" fill="#0D0D0D"/>
<path d="M29.2569 17.7953C27.8009 19.4433 25.9849 20.2673 23.8089 20.2673C22.8169 20.2673 21.9129 20.1153 21.0969 19.8113C20.2969 19.4913 19.6089 19.0513 19.0329 18.4913C18.4569 17.9153 18.0089 17.2353 17.6889 16.4513C17.3689 15.6673 17.2089 14.7953 17.2089 13.8353C17.2089 12.8433 17.3769 11.9393 17.7129 11.1233C18.0489 10.2913 18.5209 9.57934 19.1289 8.98734C19.7529 8.37934 20.4809 7.90734 21.3129 7.57134C22.1609 7.23534 23.0889 7.06734 24.0969 7.06734C25.7929 7.06734 27.1129 7.52334 28.0569 8.43534C29.0009 9.34734 29.4729 10.6273 29.4729 12.2753C29.4729 12.5313 29.4329 12.6913 29.3529 12.7553C29.2729 12.8033 29.0489 12.8273 28.6809 12.8273H20.9529C20.8889 12.9713 20.8569 13.2353 20.8569 13.6193C20.8569 15.1873 21.1929 16.4273 21.8649 17.3393C22.5529 18.2513 23.4809 18.7073 24.6489 18.7073C25.3209 18.7073 25.9849 18.5553 26.6409 18.2513C27.3129 17.9473 27.9609 17.5153 28.5849 16.9553L29.2569 17.7953ZM24.6009 11.4833C25.2409 11.4833 25.6489 11.4513 25.8249 11.3873C26.0169 11.3073 26.1129 11.1313 26.1129 10.8593C26.1129 10.1553 25.9129 9.57934 25.5129 9.13134C25.1129 8.68334 24.6089 8.45934 24.0009 8.45934C23.3129 8.45934 22.6969 8.74734 22.1529 9.32334C21.6249 9.88334 21.2809 10.6033 21.1209 11.4833H24.6009Z" fill="#0D0D0D"/>
<path d="M32.4319 10.4033C32.2559 9.93934 32.0879 9.57134 31.9279 9.29934C31.7679 9.01134 31.5999 8.79534 31.4239 8.65134C31.2639 8.49134 31.0799 8.38734 30.8719 8.33934C30.6799 8.29134 30.4479 8.26734 30.1759 8.26734V7.30734H37.3519V8.26734C36.9519 8.26734 36.6319 8.28334 36.3919 8.31534C36.1679 8.34734 35.9919 8.39534 35.8639 8.45934C35.7519 8.52334 35.6799 8.61134 35.6479 8.72334C35.6159 8.81934 35.5999 8.93134 35.5999 9.05934C35.5999 9.26734 35.6399 9.50734 35.7199 9.77934C35.7999 10.0513 35.8959 10.3233 36.0079 10.5953L38.2879 16.8833H38.3839L40.9519 10.6193C41.0639 10.3473 41.1519 10.1073 41.2159 9.89934C41.2799 9.67534 41.3119 9.47534 41.3119 9.29934C41.3119 8.94734 41.1919 8.69134 40.9519 8.53134C40.7119 8.37134 40.2879 8.28334 39.6799 8.26734V7.30734H44.9839V8.26734C44.5519 8.26734 44.1759 8.37934 43.8559 8.60334C43.5519 8.82734 43.2319 9.32334 42.8959 10.0913L38.4079 20.2673H36.2239L32.4319 10.4033Z" fill="#0D0D0D"/>
<path d="M50.6295 16.0913C50.6295 16.7473 50.6455 17.2673 50.6775 17.6513C50.7255 18.0193 50.8135 18.3073 50.9415 18.5153C51.0855 18.7233 51.2935 18.8593 51.5655 18.9233C51.8535 18.9873 52.2375 19.0353 52.7175 19.0673V20.0273H45.1575V19.0673C45.6375 19.0353 46.0215 18.9873 46.3095 18.9233C46.5975 18.8593 46.8135 18.7313 46.9575 18.5393C47.1015 18.3473 47.1895 18.0753 47.2215 17.7233C47.2695 17.3553 47.2935 16.8673 47.2935 16.2593V6.39534C47.2935 5.43534 47.2775 4.68334 47.2455 4.13934C47.2295 3.57934 47.1895 3.15534 47.1255 2.86734C47.0775 2.65934 47.0215 2.49934 46.9575 2.38734C46.8935 2.25934 46.7895 2.16334 46.6455 2.09934C46.5175 2.01934 46.3335 1.97134 46.0935 1.95534C45.8695 1.92334 45.5815 1.90734 45.2295 1.90734V1.01934L50.5815 0.107339V8.96334H50.6775C51.1735 8.30734 51.7255 7.82734 52.3335 7.52334C52.9575 7.21934 53.7015 7.06734 54.5655 7.06734C56.1335 7.06734 57.3495 7.54734 58.2135 8.50734C58.6295 8.98734 58.9575 9.57134 59.1975 10.2593C59.4375 10.9313 59.5575 11.6353 59.5575 12.3713V16.0913C59.5575 16.7633 59.5735 17.2913 59.6055 17.6753C59.6375 18.0433 59.7175 18.3313 59.8455 18.5393C59.9895 18.7313 60.1975 18.8593 60.4695 18.9233C60.7415 18.9873 61.1175 19.0353 61.5975 19.0673V20.0273H54.0855V19.0673C54.5655 19.0513 54.9415 19.0113 55.2135 18.9473C55.5015 18.8673 55.7175 18.7313 55.8615 18.5393C56.0215 18.3473 56.1175 18.0753 56.1495 17.7233C56.1975 17.3553 56.2215 16.8673 56.2215 16.2593V13.3073C56.2215 11.6113 56.0375 10.4113 55.6695 9.70734C55.3015 9.00334 54.6695 8.65134 53.7735 8.65134C52.8135 8.65134 52.0535 9.00334 51.4935 9.70734C51.2215 10.0753 51.0055 10.5313 50.8455 11.0753C50.7015 11.6193 50.6295 12.2273 50.6295 12.8993V16.0913Z" fill="#0D0D0D"/>
<path d="M74.8663 17.7953C73.4103 19.4433 71.5943 20.2673 69.4183 20.2673C68.4263 20.2673 67.5223 20.1153 66.7063 19.8113C65.9063 19.4913 65.2183 19.0513 64.6423 18.4913C64.0663 17.9153 63.6183 17.2353 63.2983 16.4513C62.9783 15.6673 62.8183 14.7953 62.8183 13.8353C62.8183 12.8433 62.9863 11.9393 63.3223 11.1233C63.6583 10.2913 64.1303 9.57934 64.7383 8.98734C65.3623 8.37934 66.0903 7.90734 66.9223 7.57134C67.7703 7.23534 68.6983 7.06734 69.7063 7.06734C71.4023 7.06734 72.7223 7.52334 73.6663 8.43534C74.6103 9.34734 75.0823 10.6273 75.0823 12.2753C75.0823 12.5313 75.0423 12.6913 74.9623 12.7553C74.8823 12.8033 74.6583 12.8273 74.2903 12.8273H66.5623C66.4983 12.9713 66.4663 13.2353 66.4663 13.6193C66.4663 15.1873 66.8023 16.4273 67.4743 17.3393C68.1623 18.2513 69.0903 18.7073 70.2583 18.7073C70.9303 18.7073 71.5943 18.5553 72.2503 18.2513C72.9223 17.9473 73.5703 17.5153 74.1943 16.9553L74.8663 17.7953ZM70.2103 11.4833C70.8503 11.4833 71.2583 11.4513 71.4343 11.3873C71.6263 11.3073 71.7223 11.1313 71.7223 10.8593C71.7223 10.1553 71.5223 9.57934 71.1223 9.13134C70.7223 8.68334 70.2183 8.45934 69.6103 8.45934C68.9223 8.45934 68.3063 8.74734 67.7623 9.32334C67.2343 9.88334 66.8903 10.6033 66.7303 11.4833H70.2103Z" fill="#0D0D0D"/>
<path d="M82.1134 16.1153C82.1134 16.7713 82.1294 17.2913 82.1614 17.6753C82.2094 18.0433 82.2974 18.3313 82.4254 18.5393C82.5694 18.7313 82.7774 18.8593 83.0494 18.9233C83.3374 18.9873 83.7214 19.0353 84.2014 19.0673V20.0273H76.6414V19.0673C77.1054 19.0353 77.4734 18.9873 77.7454 18.9233C78.0334 18.8593 78.2494 18.7313 78.3934 18.5393C78.5534 18.3473 78.6574 18.0753 78.7054 17.7233C78.7534 17.3713 78.7774 16.8913 78.7774 16.2833V13.2833C78.7774 12.3393 78.7614 11.5793 78.7294 11.0033C78.6974 10.4113 78.6574 10.0113 78.6094 9.80334C78.5614 9.59534 78.4974 9.42734 78.4174 9.29934C78.3374 9.15534 78.2174 9.05134 78.0574 8.98734C77.8974 8.90734 77.6974 8.85934 77.4574 8.84334C77.2174 8.81134 76.9134 8.79534 76.5454 8.79534V7.97934L81.1774 7.06734L81.4894 9.17934H81.5854C82.1134 8.50734 82.7374 7.98734 83.4574 7.61934C84.1774 7.25134 84.9694 7.06734 85.8334 7.06734C86.8574 7.06734 87.6814 7.21134 88.3054 7.49934C88.9454 7.77134 89.5134 8.23534 90.0094 8.89134C90.2814 9.25934 90.5214 9.73934 90.7294 10.3313C90.9374 10.9073 91.0414 11.7073 91.0414 12.7313V16.1153C91.0414 16.7713 91.0574 17.2913 91.0894 17.6753C91.1374 18.0433 91.2254 18.3313 91.3534 18.5393C91.4974 18.7313 91.7054 18.8593 91.9774 18.9233C92.2494 18.9873 92.6174 19.0353 93.0814 19.0673V20.0273H85.5694V19.0673C86.0494 19.0513 86.4254 19.0113 86.6974 18.9473C86.9854 18.8673 87.2014 18.7313 87.3454 18.5393C87.4894 18.3473 87.5854 18.0753 87.6334 17.7233C87.6814 17.3553 87.7054 16.8753 87.7054 16.2833V13.0193C87.7054 12.2033 87.6574 11.5153 87.5614 10.9553C87.4654 10.3953 87.3054 9.94734 87.0814 9.61134C86.8734 9.25934 86.5934 9.01134 86.2414 8.86734C85.8894 8.70734 85.4494 8.62734 84.9214 8.62734C84.4094 8.62734 83.9694 8.77134 83.6014 9.05934C83.2334 9.34734 82.9134 9.74734 82.6414 10.2593C82.4974 10.5473 82.3694 10.9233 82.2574 11.3873C82.1614 11.8353 82.1134 12.3073 82.1134 12.8033V16.1153Z" fill="#0D0D0D"/>
<path d="M99.5509 16.0913C99.5509 16.7313 99.5749 17.2433 99.6229 17.6273C99.6709 18.0113 99.7669 18.3073 99.9109 18.5153C100.055 18.7233 100.263 18.8673 100.535 18.9473C100.807 19.0113 101.175 19.0513 101.639 19.0673V20.0273H94.0789V19.0673C94.5269 19.0513 94.8869 19.0033 95.1589 18.9233C95.4469 18.8273 95.6629 18.6833 95.8069 18.4913C95.9669 18.2833 96.0709 18.0033 96.1189 17.6513C96.1829 17.2833 96.2149 16.8193 96.2149 16.2593V13.3073C96.2149 12.3793 96.1989 11.6193 96.1669 11.0273C96.1349 10.4193 96.0949 10.0033 96.0469 9.77934C95.9669 9.37934 95.7829 9.11534 95.4949 8.98734C95.2229 8.85934 94.7189 8.79534 93.9829 8.79534V7.97934L99.5509 7.06734V16.0913ZM96.0229 1.97934C96.0229 1.45134 96.1989 1.01134 96.5509 0.659339C96.9189 0.291339 97.3589 0.107339 97.8709 0.107339C98.3989 0.107339 98.8389 0.291339 99.1909 0.659339C99.5589 1.01134 99.7429 1.45134 99.7429 1.97934C99.7429 2.49134 99.5589 2.93134 99.1909 3.29934C98.8389 3.65134 98.3989 3.82734 97.8709 3.82734C97.3589 3.82734 96.9189 3.65134 96.5509 3.29934C96.1989 2.93134 96.0229 2.49134 96.0229 1.97934Z" fill="#0D0D0D"/>
<path d="M108.223 16.0913C108.223 16.7313 108.247 17.2433 108.295 17.6273C108.343 18.0113 108.439 18.3073 108.583 18.5153C108.727 18.7233 108.935 18.8673 109.207 18.9473C109.479 19.0113 109.847 19.0513 110.311 19.0673V20.0273H102.751V19.0673C103.199 19.0513 103.559 19.0033 103.831 18.9233C104.119 18.8273 104.335 18.6833 104.479 18.4913C104.639 18.2833 104.743 18.0033 104.791 17.6513C104.855 17.2833 104.887 16.8193 104.887 16.2593V13.3073C104.887 12.3793 104.871 11.6193 104.839 11.0273C104.807 10.4193 104.767 10.0033 104.719 9.77934C104.639 9.37934 104.455 9.11534 104.167 8.98734C103.895 8.85934 103.391 8.79534 102.655 8.79534V7.97934L108.223 7.06734V16.0913ZM104.695 1.97934C104.695 1.45134 104.871 1.01134 105.223 0.659339C105.591 0.291339 106.031 0.107339 106.543 0.107339C107.071 0.107339 107.511 0.291339 107.863 0.659339C108.231 1.01134 108.415 1.45134 108.415 1.97934C108.415 2.49134 108.231 2.93134 107.863 3.29934C107.511 3.65134 107.071 3.82734 106.543 3.82734C106.031 3.82734 105.591 3.65134 105.223 3.29934C104.871 2.93134 104.695 2.49134 104.695 1.97934Z" fill="#0D0D0D"/>
<path d="M117.894 20.0273V19.0673C118.438 19.0513 118.87 19.0033 119.19 18.9233C119.526 18.8433 119.782 18.7073 119.958 18.5153C120.15 18.3233 120.278 18.0513 120.342 17.6993C120.406 17.3473 120.438 16.8913 120.438 16.3313V5.24334C120.438 4.68334 120.414 4.23534 120.366 3.89934C120.318 3.54734 120.214 3.27534 120.054 3.08334C119.91 2.87534 119.702 2.73934 119.43 2.67534C119.174 2.59534 118.83 2.53934 118.398 2.50734V1.54734H126.102C128.518 1.54734 130.374 1.93934 131.67 2.72334C132.982 3.49134 133.638 4.59534 133.638 6.03534C133.638 7.93934 132.27 9.28334 129.534 10.0673V10.1633C130.414 10.1633 131.206 10.2913 131.91 10.5473C132.63 10.7873 133.238 11.1313 133.734 11.5793C134.23 12.0273 134.614 12.5553 134.886 13.1633C135.158 13.7713 135.294 14.4353 135.294 15.1553C135.294 15.9713 135.094 16.6833 134.694 17.2913C134.31 17.8993 133.75 18.4113 133.014 18.8273C131.59 19.6273 129.63 20.0273 127.134 20.0273H117.894ZM127.302 18.5633C129.878 18.5633 131.166 17.4033 131.166 15.0833C131.166 13.6593 130.702 12.6193 129.774 11.9633C129.294 11.6273 128.67 11.3873 127.902 11.2433C127.15 11.0993 126.222 11.0273 125.118 11.0273H123.966V15.8273C123.966 16.8193 124.222 17.5233 124.734 17.9393C125.246 18.3553 126.102 18.5633 127.302 18.5633ZM125.382 9.58734C126.102 9.58734 126.726 9.52334 127.254 9.39534C127.782 9.25134 128.23 9.05134 128.598 8.79534C129.366 8.26734 129.75 7.44334 129.75 6.32334C129.75 5.15534 129.462 4.31534 128.886 3.80334C128.31 3.27534 127.382 3.01134 126.102 3.01134H124.398C124.11 3.01134 123.966 3.14734 123.966 3.41934V9.58734H125.382Z" fill="#0D0D0D"/>
<path d="M147.246 11.2433C147.246 10.6033 147.23 10.0993 147.198 9.73134C147.166 9.34734 147.078 9.05934 146.934 8.86734C146.79 8.65934 146.574 8.52334 146.286 8.45934C146.014 8.37934 145.638 8.31534 145.158 8.26734V7.30734H150.582V14.5793C150.582 15.5553 150.59 16.3233 150.606 16.8833C150.638 17.4273 150.686 17.8353 150.75 18.1073C150.798 18.3153 150.854 18.4833 150.918 18.6113C150.982 18.7233 151.086 18.8193 151.23 18.8993C151.374 18.9633 151.566 19.0113 151.806 19.0433C152.062 19.0593 152.39 19.0673 152.79 19.0673V20.0033L148.014 20.2913L147.75 18.1553H147.654C147.238 18.8273 146.654 19.3473 145.902 19.7153C145.15 20.0833 144.31 20.2673 143.382 20.2673C141.67 20.2673 140.366 19.6593 139.47 18.4433C138.782 17.5153 138.438 16.1953 138.438 14.4833V11.2433C138.438 10.5873 138.422 10.0753 138.39 9.70734C138.358 9.32334 138.27 9.03534 138.126 8.84334C137.998 8.65134 137.798 8.52334 137.526 8.45934C137.254 8.37934 136.878 8.31534 136.398 8.26734V7.30734H141.774V14.0993C141.774 15.7153 141.974 16.8913 142.374 17.6273C142.774 18.3473 143.414 18.7073 144.294 18.7073C145.238 18.7073 145.966 18.2753 146.478 17.4113C146.99 16.5793 147.246 15.3553 147.246 13.7393V11.2433Z" fill="#0D0D0D"/>
<path d="M158.958 16.0913C158.958 16.7473 158.974 17.2673 159.006 17.6513C159.054 18.0193 159.142 18.3073 159.27 18.5153C159.414 18.7233 159.622 18.8593 159.894 18.9233C160.182 18.9873 160.566 19.0353 161.046 19.0673V20.0273H153.486V19.0673C153.966 19.0353 154.35 18.9873 154.638 18.9233C154.926 18.8593 155.142 18.7313 155.286 18.5393C155.43 18.3473 155.518 18.0753 155.55 17.7233C155.598 17.3553 155.622 16.8673 155.622 16.2593V6.39534C155.622 5.43534 155.606 4.68334 155.574 4.13934C155.558 3.57934 155.518 3.15534 155.454 2.86734C155.406 2.65934 155.35 2.49934 155.286 2.38734C155.222 2.25934 155.118 2.16334 154.974 2.09934C154.846 2.01934 154.662 1.97134 154.422 1.95534C154.198 1.92334 153.91 1.90734 153.558 1.90734V1.01934L158.91 0.107339V8.96334H159.006C159.502 8.30734 160.054 7.82734 160.662 7.52334C161.286 7.21934 162.03 7.06734 162.894 7.06734C164.462 7.06734 165.678 7.54734 166.542 8.50734C166.958 8.98734 167.286 9.57134 167.526 10.2593C167.766 10.9313 167.886 11.6353 167.886 12.3713V16.0913C167.886 16.7633 167.902 17.2913 167.934 17.6753C167.966 18.0433 168.046 18.3313 168.174 18.5393C168.318 18.7313 168.526 18.8593 168.798 18.9233C169.07 18.9873 169.446 19.0353 169.926 19.0673V20.0273H162.414V19.0673C162.894 19.0513 163.27 19.0113 163.542 18.9473C163.83 18.8673 164.046 18.7313 164.19 18.5393C164.35 18.3473 164.446 18.0753 164.478 17.7233C164.526 17.3553 164.55 16.8673 164.55 16.2593V13.3073C164.55 11.6113 164.366 10.4113 163.998 9.70734C163.63 9.00334 162.998 8.65134 162.102 8.65134C161.142 8.65134 160.382 9.00334 159.822 9.70734C159.55 10.0753 159.334 10.5313 159.174 11.0753C159.03 11.6193 158.958 12.2273 158.958 12.8993V16.0913Z" fill="#0D0D0D"/>
<path d="M178.106 7.06734C179.066 7.06734 179.97 7.23534 180.818 7.57134C181.682 7.89134 182.434 8.33934 183.074 8.91534C183.73 9.49134 184.242 10.1793 184.61 10.9793C184.994 11.7633 185.186 12.6273 185.186 13.5713C185.186 14.5473 184.994 15.4433 184.61 16.2593C184.242 17.0753 183.73 17.7793 183.074 18.3713C182.434 18.9633 181.682 19.4273 180.818 19.7633C179.97 20.0993 179.066 20.2673 178.106 20.2673C177.162 20.2673 176.266 20.1073 175.418 19.7873C174.57 19.4513 173.826 18.9873 173.186 18.3953C172.546 17.8033 172.042 17.0993 171.674 16.2833C171.306 15.4513 171.122 14.5473 171.122 13.5713C171.122 12.6273 171.306 11.7553 171.674 10.9553C172.042 10.1553 172.546 9.46734 173.186 8.89134C173.826 8.31534 174.57 7.86734 175.418 7.54734C176.266 7.22734 177.162 7.06734 178.106 7.06734ZM178.106 8.45934C177.626 8.45934 177.186 8.58734 176.786 8.84334C176.386 9.08334 176.042 9.42734 175.754 9.87534C175.482 10.3233 175.266 10.8673 175.106 11.5073C174.962 12.1313 174.89 12.8273 174.89 13.5953C174.89 14.3953 174.962 15.1153 175.106 15.7553C175.266 16.3953 175.482 16.9393 175.754 17.3873C176.042 17.8353 176.378 18.1873 176.762 18.4433C177.162 18.6833 177.61 18.8033 178.106 18.8033C178.602 18.8033 179.05 18.6833 179.45 18.4433C179.866 18.1873 180.218 17.8353 180.506 17.3873C180.794 16.9233 181.018 16.3713 181.178 15.7313C181.338 15.0913 181.418 14.3793 181.418 13.5953C181.418 12.8273 181.338 12.1313 181.178 11.5073C181.018 10.8833 180.794 10.3473 180.506 9.89934C180.218 9.43534 179.866 9.08334 179.45 8.84334C179.05 8.58734 178.602 8.45934 178.106 8.45934Z" fill="#0D0D0D"/>
<path d="M192.27 16.3073C192.27 16.9313 192.294 17.4273 192.342 17.7953C192.406 18.1473 192.526 18.4193 192.702 18.6113C192.878 18.8033 193.134 18.9313 193.47 18.9953C193.806 19.0433 194.254 19.0673 194.814 19.0673V20.0273H186.798V19.0673C187.278 19.0353 187.662 18.9873 187.95 18.9233C188.238 18.8593 188.454 18.7313 188.598 18.5393C188.742 18.3473 188.83 18.0753 188.862 17.7233C188.91 17.3553 188.934 16.8673 188.934 16.2593V13.3313C188.934 12.3393 188.91 11.5473 188.862 10.9553C188.814 10.3633 188.71 9.90734 188.55 9.58734C188.39 9.26734 188.158 9.05934 187.854 8.96334C187.566 8.85134 187.182 8.79534 186.702 8.79534V7.95534L191.502 7.06734L191.886 9.82734H191.982C192.414 8.97934 192.982 8.30734 193.686 7.81134C194.39 7.31534 195.134 7.06734 195.918 7.06734C196.526 7.06734 197.022 7.21934 197.406 7.52334C197.79 7.82734 197.982 8.21134 197.982 8.67534C197.982 9.18734 197.83 9.61934 197.526 9.97134C197.238 10.3233 196.838 10.4993 196.326 10.4993C196.086 10.4993 195.87 10.4513 195.678 10.3553C195.486 10.2593 195.31 10.1553 195.15 10.0433C195.006 9.91534 194.854 9.80334 194.694 9.70734C194.55 9.59534 194.398 9.53934 194.238 9.53934C193.934 9.53934 193.646 9.73934 193.374 10.1393C193.102 10.5393 192.878 11.0753 192.702 11.7473C192.574 12.2273 192.47 12.7713 192.39 13.3793C192.31 13.9713 192.27 14.5633 192.27 15.1553V16.3073Z" fill="#0D0D0D"/>
<path d="M99.836 2.02734C99.836 3.13191 98.9406 4.02734 97.836 4.02734C96.7314 4.02734 95.836 3.13191 95.836 2.02734C95.836 0.922771 96.7314 0.0273401 97.836 0.0273401C98.9406 0.0273401 99.836 0.922771 99.836 2.02734Z" fill="#EF4444"/>
<path d="M108.505 2C108.505 3.10457 107.609 4 106.505 4C105.4 4 104.505 3.10457 104.505 2C104.505 0.89543 105.4 0 106.505 0C107.609 0 108.505 0.89543 108.505 2Z" fill="#EF4444"/>
<path d="M108.223 16.0913C108.223 16.7313 108.247 17.2433 108.295 17.6273C108.343 18.0113 108.439 18.3073 108.583 18.5153C108.727 18.7233 108.935 18.8673 109.207 18.9473C109.479 19.0113 109.847 19.0513 110.311 19.0673V20.0273H102.751V19.0673C103.199 19.0513 103.559 19.0033 103.831 18.9233C104.119 18.8273 104.335 18.6833 104.479 18.4913C104.639 18.2833 104.743 18.0033 104.791 17.6513C104.855 17.2833 104.887 16.8193 104.887 16.2593V13.3073C104.887 12.3793 104.871 11.6193 104.839 11.0273C104.807 10.4193 104.767 10.0033 104.719 9.77934C104.639 9.37934 104.455 9.11534 104.167 8.98734C103.895 8.85934 103.391 8.79534 102.655 8.79534V7.97934L108.223 7.06734V16.0913ZM104.695 1.97934C104.695 1.45134 104.871 1.01134 105.223 0.659339C105.591 0.291339 106.031 0.107339 106.543 0.107339C107.071 0.107339 107.511 0.291339 107.863 0.659339C108.231 1.01134 108.415 1.45134 108.415 1.97934C108.415 2.49134 108.231 2.93134 107.863 3.29934C107.511 3.65134 107.071 3.82734 106.543 3.82734C106.031 3.82734 105.591 3.65134 105.223 3.29934C104.871 2.93134 104.695 2.49134 104.695 1.97934Z" fill="#0D0D0D"/>
<path d="M99.836 2.02734C99.836 3.13191 98.9406 4.02734 97.836 4.02734C96.7314 4.02734 95.836 3.13191 95.836 2.02734C95.836 0.922771 96.7314 0.0273401 97.836 0.0273401C98.9406 0.0273401 99.836 0.922771 99.836 2.02734Z" fill="#EF4444"/>
<path d="M108.505 2C108.505 3.10457 107.609 4 106.505 4C105.4 4 104.505 3.10457 104.505 2C104.505 0.89543 105.4 0 106.505 0C107.609 0 108.505 0.89543 108.505 2Z" fill="#EF4444"/>
</svg>
