<svg width="193" height="21" viewBox="0 0 193 21" fill="currentColor" xmlns="http://www.w3.org/2000/svg">
<path d="M3.736 4.496C3.496 4.08 3.272 3.744 3.064 3.488C2.856 3.216 2.64 3 2.416 2.84C2.208 2.68 1.984 2.576 1.744 2.528C1.504 2.464 1.216 2.432 0.88 2.432V1.52H8.44V2.432C7.64 2.432 7.072 2.496 6.736 2.624C6.416 2.736 6.256 2.944 6.256 3.248C6.256 3.584 6.44 4.064 6.808 4.688L10.528 11.048H10.624L13.336 6.488C13.848 5.624 14.208 4.944 14.416 4.448C14.64 3.952 14.752 3.552 14.752 3.248C14.752 2.944 14.632 2.736 14.392 2.624C14.168 2.496 13.768 2.432 13.192 2.432V1.52H18.688V2.432C18.352 2.432 18.048 2.48 17.776 2.576C17.52 2.672 17.248 2.864 16.96 3.152C16.672 3.44 16.352 3.84 16 4.352C15.664 4.864 15.248 5.536 14.752 6.368L11.056 12.608V15.464C11.056 16.248 11.08 16.88 11.128 17.36C11.192 17.824 11.312 18.184 11.488 18.44C11.68 18.696 11.944 18.872 12.28 18.968C12.632 19.048 13.096 19.088 13.672 19.088V20H5.896V19.088C6.472 19.088 6.928 19.048 7.264 18.968C7.616 18.872 7.88 18.704 8.056 18.464C8.248 18.208 8.376 17.856 8.44 17.408C8.504 16.96 8.536 16.368 8.536 15.632V12.704L3.736 4.496ZM28.7624 17.768C27.4024 19.416 25.7144 20.24 23.6984 20.24C22.7544 20.24 21.8984 20.088 21.1304 19.784C20.3624 19.464 19.6984 19.024 19.1384 18.464C18.5944 17.888 18.1704 17.208 17.8664 16.424C17.5624 15.624 17.4104 14.744 17.4104 13.784C17.4104 12.808 17.5704 11.904 17.8904 11.072C18.2104 10.24 18.6584 9.528 19.2344 8.936C19.8264 8.344 20.5224 7.88 21.3224 7.544C22.1384 7.208 23.0264 7.04 23.9864 7.04C25.5384 7.04 26.7384 7.464 27.5864 8.312C28.4344 9.144 28.8584 10.344 28.8584 11.912C28.8584 12.136 28.8104 12.272 28.7144 12.32C28.6344 12.368 28.4344 12.392 28.1144 12.392H20.2184C20.1864 12.52 20.1624 12.68 20.1464 12.872C20.1304 13.048 20.1224 13.248 20.1224 13.472C20.1224 14.304 20.2184 15.064 20.4104 15.752C20.6184 16.424 20.9064 17 21.2744 17.48C21.6584 17.96 22.1064 18.336 22.6184 18.608C23.1464 18.864 23.7304 18.992 24.3704 18.992C25.0424 18.992 25.6664 18.848 26.2424 18.56C26.8184 18.256 27.4104 17.768 28.0184 17.096L28.7624 17.768ZM24.8024 11.288C25.1224 11.288 25.3784 11.28 25.5704 11.264C25.7624 11.248 25.9064 11.216 26.0024 11.168C26.0984 11.12 26.1624 11.056 26.1944 10.976C26.2264 10.88 26.2424 10.76 26.2424 10.616C26.2424 9.88 26.0024 9.296 25.5224 8.864C25.0584 8.416 24.4184 8.192 23.6024 8.192C21.8744 8.192 20.8024 9.224 20.3864 11.288H24.8024ZM32.1835 10.256C31.9915 9.776 31.8155 9.4 31.6555 9.128C31.5115 8.84 31.3515 8.624 31.1755 8.48C30.9995 8.336 30.7995 8.248 30.5755 8.216C30.3675 8.168 30.1115 8.136 29.8075 8.12V7.28H36.1675V8.12C35.8475 8.136 35.5835 8.152 35.3755 8.168C35.1675 8.184 34.9995 8.224 34.8715 8.288C34.7595 8.336 34.6795 8.416 34.6315 8.528C34.5835 8.624 34.5595 8.768 34.5595 8.96C34.5595 9.232 34.5915 9.488 34.6555 9.728C34.7355 9.968 34.8155 10.208 34.8955 10.448L37.4395 17.408H37.5355L39.7195 12.248C40.0555 11.448 40.2955 10.808 40.4395 10.328C40.5835 9.848 40.6555 9.424 40.6555 9.056C40.6555 8.688 40.5595 8.44 40.3675 8.312C40.1755 8.184 39.7595 8.12 39.1195 8.12V7.28H43.8955V8.12C43.6395 8.12 43.4075 8.184 43.1995 8.312C42.9915 8.44 42.8075 8.6 42.6475 8.792C42.5195 8.968 42.3835 9.208 42.2395 9.512C42.1115 9.8 41.9755 10.104 41.8315 10.424C41.7035 10.744 41.5835 11.064 41.4715 11.384C41.3595 11.688 41.2555 11.936 41.1595 12.128L37.6315 20.264H36.2395L32.1835 10.256ZM49.0936 16.184C49.0936 16.84 49.1096 17.36 49.1416 17.744C49.1736 18.128 49.2536 18.424 49.3816 18.632C49.5256 18.824 49.7256 18.952 49.9816 19.016C50.2376 19.08 50.5976 19.128 51.0616 19.16V20H44.6776V19.16C45.1416 19.128 45.5096 19.08 45.7816 19.016C46.0536 18.952 46.2616 18.824 46.4056 18.632C46.5496 18.44 46.6376 18.168 46.6696 17.816C46.7176 17.448 46.7416 16.96 46.7416 16.352V6.296C46.7416 5.352 46.7256 4.6 46.6936 4.04C46.6776 3.48 46.6376 3.056 46.5736 2.768C46.5416 2.576 46.4856 2.424 46.4056 2.312C46.3416 2.184 46.2376 2.088 46.0936 2.024C45.9496 1.944 45.7576 1.888 45.5176 1.856C45.2776 1.824 44.9816 1.808 44.6296 1.808V0.991999L49.0456 0.079999V9.224H49.1416C49.3816 8.904 49.6776 8.616 50.0296 8.36C50.3976 8.088 50.7896 7.856 51.2056 7.664C51.6216 7.472 52.0536 7.32 52.5016 7.208C52.9656 7.096 53.4136 7.04 53.8456 7.04C54.5816 7.04 55.2536 7.168 55.8616 7.424C56.4856 7.68 56.9656 8.024 57.3016 8.456C57.5736 8.824 57.7736 9.312 57.9016 9.92C58.0296 10.512 58.0936 11.32 58.0936 12.344V16.184C58.0936 16.84 58.1096 17.36 58.1416 17.744C58.1736 18.112 58.2536 18.4 58.3816 18.608C58.5256 18.816 58.7256 18.952 58.9816 19.016C59.2376 19.08 59.5976 19.128 60.0616 19.16V20H53.7016V19.16C54.1496 19.144 54.5096 19.104 54.7816 19.04C55.0536 18.96 55.2536 18.824 55.3816 18.632C55.5256 18.44 55.6136 18.168 55.6456 17.816C55.6936 17.448 55.7176 16.96 55.7176 16.352V13.328C55.7176 11.536 55.5096 10.264 55.0936 9.512C54.6776 8.744 53.9816 8.36 53.0056 8.36C52.2536 8.36 51.5656 8.552 50.9416 8.936C50.3336 9.32 49.8536 9.848 49.5016 10.52C49.4216 10.696 49.3496 10.864 49.2856 11.024C49.2376 11.168 49.1976 11.336 49.1656 11.528C49.1336 11.72 49.1096 11.944 49.0936 12.2C49.0936 12.44 49.0936 12.744 49.0936 13.112V16.184ZM73.153 17.768C71.793 19.416 70.105 20.24 68.089 20.24C67.145 20.24 66.289 20.088 65.521 19.784C64.753 19.464 64.089 19.024 63.529 18.464C62.985 17.888 62.561 17.208 62.257 16.424C61.953 15.624 61.801 14.744 61.801 13.784C61.801 12.808 61.961 11.904 62.281 11.072C62.601 10.24 63.049 9.528 63.625 8.936C64.217 8.344 64.913 7.88 65.713 7.544C66.529 7.208 67.417 7.04 68.377 7.04C69.929 7.04 71.129 7.464 71.977 8.312C72.825 9.144 73.249 10.344 73.249 11.912C73.249 12.136 73.201 12.272 73.105 12.32C73.025 12.368 72.825 12.392 72.505 12.392H64.609C64.577 12.52 64.553 12.68 64.537 12.872C64.521 13.048 64.513 13.248 64.513 13.472C64.513 14.304 64.609 15.064 64.801 15.752C65.009 16.424 65.297 17 65.665 17.48C66.049 17.96 66.497 18.336 67.009 18.608C67.537 18.864 68.121 18.992 68.761 18.992C69.433 18.992 70.057 18.848 70.633 18.56C71.209 18.256 71.801 17.768 72.409 17.096L73.153 17.768ZM69.193 11.288C69.513 11.288 69.769 11.28 69.961 11.264C70.153 11.248 70.297 11.216 70.393 11.168C70.489 11.12 70.553 11.056 70.585 10.976C70.617 10.88 70.633 10.76 70.633 10.616C70.633 9.88 70.393 9.296 69.913 8.864C69.449 8.416 68.809 8.192 67.993 8.192C66.265 8.192 65.193 9.224 64.777 11.288H69.193ZM79.5668 16.232C79.5668 16.888 79.5828 17.408 79.6148 17.792C79.6468 18.16 79.7268 18.448 79.8548 18.656C79.9988 18.848 80.1988 18.976 80.4548 19.04C80.7268 19.104 81.0948 19.152 81.5588 19.184V20H75.2708V19.184C75.7188 19.152 76.0708 19.104 76.3268 19.04C76.5988 18.976 76.8068 18.848 76.9508 18.656C77.0948 18.464 77.1828 18.192 77.2148 17.84C77.2628 17.488 77.2868 17.008 77.2868 16.4V13.208C77.2868 11.304 77.2388 10.144 77.1428 9.728C77.0948 9.52 77.0308 9.352 76.9508 9.224C76.8868 9.08 76.7828 8.976 76.6388 8.912C76.4948 8.832 76.3108 8.784 76.0868 8.768C75.8628 8.736 75.5748 8.72 75.2228 8.72V7.952L79.0628 7.04L79.3508 9.416H79.4468C80.0548 8.664 80.7668 8.08 81.5828 7.664C82.3988 7.248 83.2868 7.04 84.2468 7.04C84.9828 7.04 85.6548 7.16 86.2628 7.4C86.8708 7.64 87.3348 7.968 87.6548 8.384C87.9268 8.752 88.1188 9.232 88.2308 9.824C88.3428 10.4 88.3988 11.2 88.3988 12.224V16.232C88.3988 16.888 88.4148 17.408 88.4468 17.792C88.4948 18.16 88.5828 18.448 88.7108 18.656C88.8388 18.848 89.0308 18.976 89.2868 19.04C89.5588 19.104 89.9108 19.152 90.3428 19.184V20H84.1268V19.184C84.5748 19.168 84.9268 19.128 85.1828 19.064C85.4548 18.984 85.6548 18.848 85.7828 18.656C85.9268 18.464 86.0148 18.192 86.0468 17.84C86.0948 17.472 86.1188 16.992 86.1188 16.4V13.232C86.1188 12.32 86.0708 11.552 85.9748 10.928C85.8788 10.304 85.7188 9.8 85.4948 9.416C85.2868 9.032 85.0068 8.76 84.6548 8.6C84.3028 8.424 83.8788 8.336 83.3828 8.336C82.6628 8.336 81.9988 8.528 81.3908 8.912C80.7988 9.28 80.3348 9.792 79.9988 10.448C79.9188 10.608 79.8468 10.76 79.7828 10.904C79.7348 11.048 79.6948 11.216 79.6628 11.408C79.6308 11.6 79.6068 11.824 79.5908 12.08C79.5748 12.32 79.5668 12.632 79.5668 13.016V16.232ZM96.4017 16.184C96.4017 16.808 96.4257 17.312 96.4737 17.696C96.5377 18.064 96.6497 18.36 96.8097 18.584C96.9697 18.792 97.1937 18.936 97.4817 19.016C97.7697 19.096 98.1537 19.144 98.6337 19.16V20H91.7457V19.16C92.2257 19.144 92.6177 19.096 92.9217 19.016C93.2257 18.92 93.4577 18.776 93.6177 18.584C93.7937 18.376 93.9057 18.096 93.9537 17.744C94.0177 17.376 94.0497 16.912 94.0497 16.352V13.28C94.0497 12.352 94.0337 11.592 94.0017 11C93.9857 10.392 93.9457 9.976 93.8817 9.752C93.8017 9.384 93.6177 9.136 93.3297 9.008C93.0417 8.864 92.4977 8.792 91.6977 8.792V7.952L96.4017 7.04V16.184ZM93.6417 2.168C93.6417 1.752 93.7857 1.4 94.0737 1.112C94.3617 0.823998 94.7137 0.679998 95.1297 0.679998C95.5457 0.679998 95.8977 0.823998 96.1857 1.112C96.4737 1.4 96.6177 1.752 96.6177 2.168C96.6177 2.584 96.4737 2.936 96.1857 3.224C95.8977 3.512 95.5457 3.656 95.1297 3.656C94.7137 3.656 94.3617 3.512 94.0737 3.224C93.7857 2.936 93.6417 2.584 93.6417 2.168ZM104.581 16.184C104.581 16.808 104.605 17.312 104.653 17.696C104.717 18.064 104.829 18.36 104.989 18.584C105.149 18.792 105.373 18.936 105.661 19.016C105.949 19.096 106.333 19.144 106.813 19.16V20H99.9254V19.16C100.405 19.144 100.797 19.096 101.101 19.016C101.405 18.92 101.637 18.776 101.797 18.584C101.973 18.376 102.085 18.096 102.133 17.744C102.197 17.376 102.229 16.912 102.229 16.352V13.28C102.229 12.352 102.213 11.592 102.181 11C102.165 10.392 102.125 9.976 102.061 9.752C101.981 9.384 101.797 9.136 101.509 9.008C101.221 8.864 100.677 8.792 99.8774 8.792V7.952L104.581 7.04V16.184ZM101.821 2.168C101.821 1.752 101.965 1.4 102.253 1.112C102.541 0.823998 102.893 0.679998 103.309 0.679998C103.725 0.679998 104.077 0.823998 104.365 1.112C104.653 1.4 104.797 1.752 104.797 2.168C104.797 2.584 104.653 2.936 104.365 3.224C104.077 3.512 103.725 3.656 103.309 3.656C102.893 3.656 102.541 3.512 102.253 3.224C101.965 2.936 101.821 2.584 101.821 2.168ZM115.092 20V19.088C115.716 19.072 116.212 19.024 116.58 18.944C116.964 18.864 117.252 18.728 117.444 18.536C117.652 18.344 117.788 18.072 117.852 17.72C117.932 17.368 117.972 16.912 117.972 16.352V5.168C117.972 4.608 117.94 4.16 117.876 3.824C117.828 3.472 117.716 3.2 117.54 3.008C117.38 2.8 117.14 2.664 116.82 2.6C116.5 2.52 116.084 2.464 115.572 2.432V1.52H122.748C124.908 1.52 126.588 1.904 127.788 2.672C128.988 3.44 129.588 4.52 129.588 5.912C129.588 6.968 129.252 7.832 128.58 8.504C127.924 9.176 126.876 9.728 125.436 10.16V10.256C125.932 10.304 126.364 10.36 126.732 10.424C127.1 10.488 127.428 10.568 127.716 10.664C128.004 10.744 128.268 10.848 128.508 10.976C128.764 11.104 129.012 11.248 129.252 11.408C130.676 12.416 131.388 13.68 131.388 15.2C131.388 16.048 131.148 16.84 130.668 17.576C130.204 18.296 129.548 18.864 128.7 19.28C128.428 19.424 128.148 19.544 127.86 19.64C127.572 19.72 127.236 19.792 126.852 19.856C126.468 19.904 126.02 19.944 125.508 19.976C125.012 19.992 124.42 20 123.732 20H115.092ZM123.804 18.968C126.7 18.968 128.148 17.728 128.148 15.248C128.148 13.44 127.404 12.176 125.916 11.456C125.66 11.344 125.412 11.248 125.172 11.168C124.932 11.088 124.652 11.032 124.332 11C124.012 10.952 123.628 10.92 123.18 10.904C122.748 10.888 122.212 10.88 121.572 10.88H120.492V16.232C120.492 17.208 120.748 17.912 121.26 18.344C121.772 18.76 122.62 18.968 123.804 18.968ZM121.836 9.68C122.332 9.68 122.748 9.672 123.084 9.656C123.42 9.64 123.708 9.616 123.948 9.584C124.188 9.536 124.396 9.48 124.572 9.416C124.764 9.336 124.956 9.232 125.148 9.104C125.66 8.784 126.02 8.4 126.228 7.952C126.452 7.504 126.564 6.92 126.564 6.2C126.564 4.936 126.252 4.032 125.628 3.488C125.02 2.928 124.06 2.648 122.748 2.648H120.9C120.628 2.648 120.492 2.784 120.492 3.056V9.68H121.836ZM143.573 11.12C143.573 10.464 143.557 9.952 143.525 9.584C143.493 9.2 143.405 8.912 143.261 8.72C143.133 8.512 142.933 8.376 142.661 8.312C142.405 8.232 142.045 8.168 141.581 8.12V7.28H145.925V14.648C145.925 15.56 145.933 16.304 145.949 16.88C145.981 17.456 146.021 17.888 146.069 18.176C146.101 18.384 146.149 18.552 146.213 18.68C146.293 18.792 146.405 18.888 146.549 18.968C146.693 19.032 146.877 19.08 147.101 19.112C147.341 19.128 147.645 19.136 148.013 19.136V19.976L144.053 20.264L143.789 17.384H143.693C143.085 18.376 142.381 19.104 141.581 19.568C140.797 20.016 139.973 20.24 139.109 20.24C138.437 20.24 137.781 20.112 137.141 19.856C136.517 19.6 136.045 19.256 135.725 18.824C135.453 18.472 135.253 17.984 135.125 17.36C135.013 16.736 134.957 15.928 134.957 14.936V11.12C134.957 10.464 134.941 9.952 134.909 9.584C134.877 9.2 134.789 8.912 134.645 8.72C134.517 8.512 134.317 8.376 134.045 8.312C133.789 8.232 133.429 8.168 132.965 8.12V7.28H137.309V13.832C137.309 15.576 137.509 16.84 137.909 17.624C138.325 18.408 138.981 18.8 139.877 18.8C141.285 18.8 142.381 17.88 143.165 16.04C143.245 15.848 143.309 15.672 143.357 15.512C143.405 15.352 143.445 15.176 143.477 14.984C143.509 14.792 143.533 14.576 143.549 14.336C143.565 14.096 143.573 13.808 143.573 13.472V11.12ZM153.531 16.184C153.531 16.84 153.547 17.36 153.579 17.744C153.611 18.128 153.691 18.424 153.819 18.632C153.963 18.824 154.163 18.952 154.419 19.016C154.675 19.08 155.035 19.128 155.499 19.16V20H149.115V19.16C149.579 19.128 149.947 19.08 150.219 19.016C150.491 18.952 150.699 18.824 150.843 18.632C150.987 18.44 151.075 18.168 151.107 17.816C151.155 17.448 151.179 16.96 151.179 16.352V6.296C151.179 5.352 151.163 4.6 151.131 4.04C151.115 3.48 151.075 3.056 151.011 2.768C150.979 2.576 150.923 2.424 150.843 2.312C150.779 2.184 150.675 2.088 150.531 2.024C150.387 1.944 150.195 1.888 149.955 1.856C149.715 1.824 149.419 1.808 149.067 1.808V0.991999L153.483 0.079999V9.224H153.579C153.819 8.904 154.115 8.616 154.467 8.36C154.835 8.088 155.227 7.856 155.643 7.664C156.059 7.472 156.491 7.32 156.939 7.208C157.403 7.096 157.851 7.04 158.283 7.04C159.019 7.04 159.691 7.168 160.299 7.424C160.923 7.68 161.403 8.024 161.739 8.456C162.011 8.824 162.211 9.312 162.339 9.92C162.467 10.512 162.531 11.32 162.531 12.344V16.184C162.531 16.84 162.547 17.36 162.579 17.744C162.611 18.112 162.691 18.4 162.819 18.608C162.963 18.816 163.163 18.952 163.419 19.016C163.675 19.08 164.035 19.128 164.499 19.16V20H158.139V19.16C158.587 19.144 158.947 19.104 159.219 19.04C159.491 18.96 159.691 18.824 159.819 18.632C159.963 18.44 160.051 18.168 160.083 17.816C160.131 17.448 160.155 16.96 160.155 16.352V13.328C160.155 11.536 159.947 10.264 159.531 9.512C159.115 8.744 158.419 8.36 157.443 8.36C156.691 8.36 156.003 8.552 155.379 8.936C154.771 9.32 154.291 9.848 153.939 10.52C153.859 10.696 153.787 10.864 153.723 11.024C153.675 11.168 153.635 11.336 153.603 11.528C153.571 11.72 153.547 11.944 153.531 12.2C153.531 12.44 153.531 12.744 153.531 13.112V16.184ZM172.863 7.04C173.775 7.04 174.639 7.208 175.455 7.544C176.271 7.864 176.983 8.312 177.591 8.888C178.215 9.464 178.703 10.152 179.055 10.952C179.423 11.736 179.607 12.6 179.607 13.544C179.607 14.52 179.423 15.416 179.055 16.232C178.703 17.048 178.215 17.752 177.591 18.344C176.983 18.936 176.271 19.4 175.455 19.736C174.639 20.072 173.775 20.24 172.863 20.24C171.967 20.24 171.111 20.08 170.295 19.76C169.495 19.424 168.791 18.96 168.183 18.368C167.575 17.776 167.095 17.072 166.743 16.256C166.391 15.424 166.215 14.52 166.215 13.544C166.215 12.6 166.391 11.728 166.743 10.928C167.095 10.128 167.575 9.44 168.183 8.864C168.791 8.288 169.495 7.84 170.295 7.52C171.111 7.2 171.967 7.04 172.863 7.04ZM172.863 8.192C172.271 8.192 171.727 8.32 171.23 8.576C170.751 8.832 170.335 9.2 169.983 9.68C169.647 10.144 169.383 10.712 169.191 11.384C169.015 12.04 168.927 12.768 168.927 13.568C168.927 14.4 169.015 15.152 169.191 15.824C169.383 16.496 169.647 17.072 169.983 17.552C170.335 18.016 170.751 18.376 171.23 18.632C171.711 18.888 172.255 19.016 172.863 19.016C173.471 19.016 174.023 18.888 174.519 18.632C175.015 18.376 175.439 18.008 175.791 17.528C176.143 17.048 176.415 16.472 176.607 15.8C176.799 15.128 176.895 14.384 176.895 13.568C176.895 12.768 176.799 12.04 176.607 11.384C176.415 10.728 176.143 10.168 175.791 9.704C175.439 9.224 175.015 8.856 174.519 8.6C174.023 8.328 173.471 8.192 172.863 8.192ZM186.094 16.184C186.094 16.84 186.11 17.36 186.142 17.744C186.174 18.128 186.254 18.424 186.382 18.632C186.526 18.824 186.726 18.952 186.982 19.016C187.238 19.08 187.598 19.128 188.062 19.16V20H181.678V19.16C182.142 19.144 182.51 19.104 182.782 19.04C183.054 18.96 183.262 18.824 183.406 18.632C183.55 18.44 183.638 18.168 183.67 17.816C183.718 17.448 183.742 16.96 183.742 16.352V13.544C183.742 12.456 183.726 11.608 183.694 11C183.678 10.392 183.598 9.944 183.454 9.656C183.326 9.368 183.118 9.2 182.83 9.152C182.542 9.088 182.142 9.056 181.63 9.056V8.216L185.83 7.304L186.166 10.28H186.262C186.47 9.8 186.726 9.36 187.03 8.96C187.35 8.56 187.694 8.224 188.062 7.952C188.43 7.664 188.814 7.44 189.214 7.28C189.614 7.12 190.022 7.04 190.438 7.04C190.95 7.04 191.35 7.168 191.638 7.424C191.942 7.664 192.094 7.992 192.094 8.408C192.094 8.792 191.974 9.096 191.734 9.32C191.494 9.528 191.15 9.632 190.702 9.632C190.446 9.632 190.23 9.6 190.054 9.536C189.878 9.472 189.718 9.408 189.574 9.344C189.446 9.264 189.318 9.192 189.19 9.128C189.078 9.064 188.95 9.032 188.806 9.032C188.374 9.032 187.942 9.312 187.51 9.872C187.078 10.416 186.742 11.112 186.502 11.96C186.374 12.424 186.27 12.952 186.19 13.544C186.126 14.12 186.094 14.728 186.094 15.368V16.184Z" fill="black"/>
</svg>
