<svg width="199" height="21" viewBox="0 0 199 21" fill="none" xmlns="http://www.w3.org/2000/svg">
<path d="M3.424 4.544C3.184 4.128 2.96 3.784 2.752 3.512C2.56 3.24 2.36 3.032 2.152 2.888C1.944 2.728 1.72 2.624 1.48 2.576C1.24 2.512 0.968 2.48 0.664 2.48V1.52H8.728V2.48C8.056 2.48 7.584 2.544 7.312 2.672C7.04 2.8 6.904 2.992 6.904 3.248C6.904 3.408 6.952 3.6 7.048 3.824C7.144 4.048 7.296 4.352 7.504 4.736L10.936 11.288H11.032L14.056 6.248C14.584 5.352 14.952 4.688 15.16 4.256C15.368 3.808 15.472 3.456 15.472 3.2C15.472 2.928 15.344 2.744 15.088 2.648C14.848 2.536 14.392 2.48 13.72 2.48V1.52H19.744V2.48C19.392 2.48 19.072 2.536 18.784 2.648C18.496 2.76 18.192 2.984 17.872 3.32C17.568 3.64 17.216 4.096 16.816 4.688C16.432 5.264 15.968 6.024 15.424 6.968L11.92 12.968V15.416C11.92 16.216 11.952 16.856 12.016 17.336C12.096 17.816 12.224 18.184 12.4 18.44C12.592 18.68 12.848 18.84 13.168 18.92C13.488 19 13.904 19.04 14.416 19.04V20H5.872V19.04C6.368 19.04 6.776 19 7.096 18.92C7.432 18.84 7.696 18.68 7.888 18.44C8.08 18.2 8.208 17.856 8.272 17.408C8.352 16.944 8.392 16.336 8.392 15.584V13.376L3.424 4.544ZM29.9209 17.768C28.4649 19.416 26.6489 20.24 24.4729 20.24C23.4809 20.24 22.5769 20.088 21.7609 19.784C20.9609 19.464 20.2729 19.024 19.6969 18.464C19.1209 17.888 18.6729 17.208 18.3529 16.424C18.0329 15.64 17.8729 14.768 17.8729 13.808C17.8729 12.816 18.0409 11.912 18.3769 11.096C18.7129 10.264 19.1849 9.552 19.7929 8.96C20.4169 8.352 21.1449 7.88 21.9769 7.544C22.8249 7.208 23.7529 7.04 24.7609 7.04C26.4569 7.04 27.7769 7.496 28.7209 8.408C29.6649 9.32 30.1369 10.6 30.1369 12.248C30.1369 12.504 30.0969 12.664 30.0169 12.728C29.9369 12.776 29.7129 12.8 29.3449 12.8H21.6169C21.5529 12.944 21.5209 13.208 21.5209 13.592C21.5209 15.16 21.8569 16.4 22.5289 17.312C23.2169 18.224 24.1449 18.68 25.3129 18.68C25.9849 18.68 26.6489 18.528 27.3049 18.224C27.9769 17.92 28.6249 17.488 29.2489 16.928L29.9209 17.768ZM25.2649 11.456C25.9049 11.456 26.3129 11.424 26.4889 11.36C26.6809 11.28 26.7769 11.104 26.7769 10.832C26.7769 10.128 26.5769 9.552 26.1769 9.104C25.7769 8.656 25.2729 8.432 24.6649 8.432C23.9769 8.432 23.3609 8.72 22.8169 9.296C22.2889 9.856 21.9449 10.576 21.7849 11.456H25.2649ZM33.0959 10.376C32.9199 9.912 32.7519 9.544 32.5919 9.272C32.4319 8.984 32.2639 8.768 32.0879 8.624C31.9279 8.464 31.7439 8.36 31.5359 8.312C31.3439 8.264 31.1119 8.24 30.8399 8.24V7.28H38.0159V8.24C37.6159 8.24 37.2959 8.256 37.0559 8.288C36.8319 8.32 36.6559 8.368 36.5279 8.432C36.4159 8.496 36.3439 8.584 36.3119 8.696C36.2799 8.792 36.2639 8.904 36.2639 9.032C36.2639 9.24 36.3039 9.48 36.3839 9.752C36.4639 10.024 36.5599 10.296 36.6719 10.568L38.9519 16.856H39.0479L41.6159 10.592C41.7279 10.32 41.8159 10.08 41.8799 9.872C41.9439 9.648 41.9759 9.448 41.9759 9.272C41.9759 8.92 41.8559 8.664 41.6159 8.504C41.3759 8.344 40.9519 8.256 40.3439 8.24V7.28H45.6479V8.24C45.2159 8.24 44.8399 8.352 44.5199 8.576C44.2159 8.8 43.8959 9.296 43.5599 10.064L39.0719 20.24H36.8879L33.0959 10.376ZM51.2935 16.064C51.2935 16.72 51.3095 17.24 51.3415 17.624C51.3895 17.992 51.4775 18.28 51.6055 18.488C51.7495 18.696 51.9575 18.832 52.2295 18.896C52.5175 18.96 52.9015 19.008 53.3815 19.04V20H45.8215V19.04C46.3015 19.008 46.6855 18.96 46.9735 18.896C47.2615 18.832 47.4775 18.704 47.6215 18.512C47.7655 18.32 47.8535 18.048 47.8855 17.696C47.9335 17.328 47.9575 16.84 47.9575 16.232V6.368C47.9575 5.408 47.9415 4.656 47.9095 4.112C47.8935 3.552 47.8535 3.128 47.7895 2.84C47.7415 2.632 47.6855 2.472 47.6215 2.36C47.5575 2.232 47.4535 2.136 47.3095 2.072C47.1815 1.992 46.9975 1.944 46.7575 1.928C46.5335 1.896 46.2455 1.88 45.8935 1.88V0.991999L51.2455 0.079999V8.936H51.3415C51.8375 8.28 52.3895 7.8 52.9975 7.496C53.6215 7.192 54.3655 7.04 55.2295 7.04C56.7975 7.04 58.0135 7.52 58.8775 8.48C59.2935 8.96 59.6215 9.544 59.8615 10.232C60.1015 10.904 60.2215 11.608 60.2215 12.344V16.064C60.2215 16.736 60.2375 17.264 60.2695 17.648C60.3015 18.016 60.3815 18.304 60.5095 18.512C60.6535 18.704 60.8615 18.832 61.1335 18.896C61.4055 18.96 61.7815 19.008 62.2615 19.04V20H54.7495V19.04C55.2295 19.024 55.6055 18.984 55.8775 18.92C56.1655 18.84 56.3815 18.704 56.5255 18.512C56.6855 18.32 56.7815 18.048 56.8135 17.696C56.8615 17.328 56.8855 16.84 56.8855 16.232V13.28C56.8855 11.584 56.7015 10.384 56.3335 9.68C55.9655 8.976 55.3335 8.624 54.4375 8.624C53.4775 8.624 52.7175 8.976 52.1575 9.68C51.8855 10.048 51.6695 10.504 51.5095 11.048C51.3655 11.592 51.2935 12.2 51.2935 12.872V16.064ZM75.5303 17.768C74.0743 19.416 72.2583 20.24 70.0823 20.24C69.0903 20.24 68.1863 20.088 67.3703 19.784C66.5703 19.464 65.8823 19.024 65.3063 18.464C64.7303 17.888 64.2823 17.208 63.9623 16.424C63.6423 15.64 63.4823 14.768 63.4823 13.808C63.4823 12.816 63.6503 11.912 63.9863 11.096C64.3223 10.264 64.7943 9.552 65.4023 8.96C66.0263 8.352 66.7543 7.88 67.5863 7.544C68.4343 7.208 69.3623 7.04 70.3703 7.04C72.0663 7.04 73.3863 7.496 74.3303 8.408C75.2743 9.32 75.7463 10.6 75.7463 12.248C75.7463 12.504 75.7063 12.664 75.6263 12.728C75.5463 12.776 75.3223 12.8 74.9543 12.8H67.2263C67.1623 12.944 67.1303 13.208 67.1303 13.592C67.1303 15.16 67.4663 16.4 68.1383 17.312C68.8263 18.224 69.7543 18.68 70.9223 18.68C71.5943 18.68 72.2583 18.528 72.9143 18.224C73.5863 17.92 74.2343 17.488 74.8583 16.928L75.5303 17.768ZM70.8743 11.456C71.5143 11.456 71.9223 11.424 72.0983 11.36C72.2903 11.28 72.3863 11.104 72.3863 10.832C72.3863 10.128 72.1863 9.552 71.7863 9.104C71.3863 8.656 70.8823 8.432 70.2743 8.432C69.5863 8.432 68.9703 8.72 68.4263 9.296C67.8983 9.856 67.5543 10.576 67.3943 11.456H70.8743ZM82.7774 16.088C82.7774 16.744 82.7934 17.264 82.8254 17.648C82.8734 18.016 82.9614 18.304 83.0894 18.512C83.2334 18.704 83.4414 18.832 83.7134 18.896C84.0014 18.96 84.3854 19.008 84.8654 19.04V20H77.3054V19.04C77.7694 19.008 78.1374 18.96 78.4094 18.896C78.6974 18.832 78.9134 18.704 79.0574 18.512C79.2174 18.32 79.3214 18.048 79.3694 17.696C79.4174 17.344 79.4414 16.864 79.4414 16.256V13.256C79.4414 12.312 79.4254 11.552 79.3934 10.976C79.3614 10.384 79.3214 9.984 79.2734 9.776C79.2254 9.568 79.1614 9.4 79.0814 9.272C79.0014 9.128 78.8814 9.024 78.7214 8.96C78.5614 8.88 78.3614 8.832 78.1214 8.816C77.8814 8.784 77.5774 8.768 77.2094 8.768V7.952L81.8414 7.04L82.1534 9.152H82.2494C82.7774 8.48 83.4014 7.96 84.1214 7.592C84.8414 7.224 85.6334 7.04 86.4974 7.04C87.5214 7.04 88.3454 7.184 88.9694 7.472C89.6094 7.744 90.1774 8.208 90.6734 8.864C90.9454 9.232 91.1854 9.712 91.3934 10.304C91.6014 10.88 91.7054 11.68 91.7054 12.704V16.088C91.7054 16.744 91.7214 17.264 91.7534 17.648C91.8014 18.016 91.8894 18.304 92.0174 18.512C92.1614 18.704 92.3694 18.832 92.6414 18.896C92.9134 18.96 93.2814 19.008 93.7454 19.04V20H86.2334V19.04C86.7134 19.024 87.0894 18.984 87.3614 18.92C87.6494 18.84 87.8654 18.704 88.0094 18.512C88.1534 18.32 88.2494 18.048 88.2974 17.696C88.3454 17.328 88.3694 16.848 88.3694 16.256V12.992C88.3694 12.176 88.3214 11.488 88.2254 10.928C88.1294 10.368 87.9694 9.92 87.7454 9.584C87.5374 9.232 87.2574 8.984 86.9054 8.84C86.5534 8.68 86.1134 8.6 85.5854 8.6C85.0734 8.6 84.6334 8.744 84.2654 9.032C83.8974 9.32 83.5774 9.72 83.3054 10.232C83.1614 10.52 83.0334 10.896 82.9214 11.36C82.8254 11.808 82.7774 12.28 82.7774 12.776V16.088ZM100.215 16.064C100.215 16.704 100.239 17.216 100.287 17.6C100.335 17.984 100.431 18.28 100.575 18.488C100.719 18.696 100.927 18.84 101.199 18.92C101.471 18.984 101.839 19.024 102.303 19.04V20H94.7429V19.04C95.1909 19.024 95.5509 18.976 95.8229 18.896C96.1109 18.8 96.3269 18.656 96.4709 18.464C96.6309 18.256 96.7349 17.976 96.7829 17.624C96.8469 17.256 96.8789 16.792 96.8789 16.232V13.28C96.8789 12.352 96.8629 11.592 96.8309 11C96.7989 10.392 96.7589 9.976 96.7109 9.752C96.6309 9.352 96.4469 9.088 96.1589 8.96C95.8869 8.832 95.3829 8.768 94.6469 8.768V7.952L100.215 7.04V16.064ZM96.6869 1.952C96.6869 1.424 96.8629 0.983999 97.2149 0.631999C97.5829 0.263999 98.0229 0.079999 98.5349 0.079999C99.0629 0.079999 99.5029 0.263999 99.8549 0.631999C100.223 0.983999 100.407 1.424 100.407 1.952C100.407 2.464 100.223 2.904 99.8549 3.272C99.5029 3.624 99.0629 3.8 98.5349 3.8C98.0229 3.8 97.5829 3.624 97.2149 3.272C96.8629 2.904 96.6869 2.464 96.6869 1.952ZM108.887 16.064C108.887 16.704 108.911 17.216 108.959 17.6C109.007 17.984 109.103 18.28 109.247 18.488C109.391 18.696 109.599 18.84 109.871 18.92C110.143 18.984 110.511 19.024 110.975 19.04V20H103.415V19.04C103.863 19.024 104.223 18.976 104.495 18.896C104.783 18.8 104.999 18.656 105.143 18.464C105.303 18.256 105.407 17.976 105.455 17.624C105.519 17.256 105.551 16.792 105.551 16.232V13.28C105.551 12.352 105.535 11.592 105.503 11C105.471 10.392 105.431 9.976 105.383 9.752C105.303 9.352 105.119 9.088 104.831 8.96C104.559 8.832 104.055 8.768 103.319 8.768V7.952L108.887 7.04V16.064ZM105.359 1.952C105.359 1.424 105.535 0.983999 105.887 0.631999C106.255 0.263999 106.695 0.079999 107.207 0.079999C107.735 0.079999 108.175 0.263999 108.527 0.631999C108.895 0.983999 109.079 1.424 109.079 1.952C109.079 2.464 108.895 2.904 108.527 3.272C108.175 3.624 107.735 3.8 107.207 3.8C106.695 3.8 106.255 3.624 105.887 3.272C105.535 2.904 105.359 2.464 105.359 1.952ZM118.558 20V19.04C119.102 19.024 119.534 18.976 119.854 18.896C120.19 18.816 120.446 18.68 120.622 18.488C120.814 18.296 120.942 18.024 121.006 17.672C121.07 17.32 121.102 16.864 121.102 16.304V5.216C121.102 4.656 121.078 4.208 121.03 3.872C120.982 3.52 120.878 3.248 120.718 3.056C120.574 2.848 120.366 2.712 120.094 2.648C119.838 2.568 119.494 2.512 119.062 2.48V1.52H126.766C129.182 1.52 131.038 1.912 132.334 2.696C133.646 3.464 134.302 4.568 134.302 6.008C134.302 7.912 132.934 9.256 130.198 10.04V10.136C131.078 10.136 131.87 10.264 132.574 10.52C133.294 10.76 133.902 11.104 134.398 11.552C134.894 12 135.278 12.528 135.55 13.136C135.822 13.744 135.958 14.408 135.958 15.128C135.958 15.944 135.758 16.656 135.358 17.264C134.974 17.872 134.414 18.384 133.678 18.8C132.254 19.6 130.294 20 127.798 20H118.558ZM127.966 18.536C130.542 18.536 131.83 17.376 131.83 15.056C131.83 13.632 131.366 12.592 130.438 11.936C129.958 11.6 129.334 11.36 128.566 11.216C127.814 11.072 126.886 11 125.782 11H124.63V15.8C124.63 16.792 124.886 17.496 125.398 17.912C125.91 18.328 126.766 18.536 127.966 18.536ZM126.046 9.56C126.766 9.56 127.39 9.496 127.918 9.368C128.446 9.224 128.894 9.024 129.262 8.768C130.03 8.24 130.414 7.416 130.414 6.296C130.414 5.128 130.126 4.288 129.55 3.776C128.974 3.248 128.046 2.984 126.766 2.984H125.062C124.774 2.984 124.63 3.12 124.63 3.392V9.56H126.046ZM147.91 11.216C147.91 10.576 147.894 10.072 147.862 9.704C147.83 9.32 147.742 9.032 147.598 8.84C147.454 8.632 147.238 8.496 146.95 8.432C146.678 8.352 146.302 8.288 145.822 8.24V7.28H151.246V14.552C151.246 15.528 151.254 16.296 151.27 16.856C151.302 17.4 151.35 17.808 151.414 18.08C151.462 18.288 151.518 18.456 151.582 18.584C151.646 18.696 151.75 18.792 151.894 18.872C152.038 18.936 152.23 18.984 152.47 19.016C152.726 19.032 153.054 19.04 153.454 19.04V19.976L148.678 20.264L148.414 18.128H148.318C147.902 18.8 147.318 19.32 146.566 19.688C145.814 20.056 144.974 20.24 144.046 20.24C142.334 20.24 141.03 19.632 140.134 18.416C139.446 17.488 139.102 16.168 139.102 14.456V11.216C139.102 10.56 139.086 10.048 139.054 9.68C139.022 9.296 138.934 9.008 138.79 8.816C138.662 8.624 138.462 8.496 138.19 8.432C137.918 8.352 137.542 8.288 137.062 8.24V7.28H142.438V14.072C142.438 15.688 142.638 16.864 143.038 17.6C143.438 18.32 144.078 18.68 144.958 18.68C145.902 18.68 146.63 18.248 147.142 17.384C147.654 16.552 147.91 15.328 147.91 13.712V11.216ZM159.622 16.064C159.622 16.72 159.638 17.24 159.67 17.624C159.718 17.992 159.806 18.28 159.934 18.488C160.078 18.696 160.286 18.832 160.558 18.896C160.846 18.96 161.23 19.008 161.71 19.04V20H154.15V19.04C154.63 19.008 155.014 18.96 155.302 18.896C155.59 18.832 155.806 18.704 155.95 18.512C156.094 18.32 156.182 18.048 156.214 17.696C156.262 17.328 156.286 16.84 156.286 16.232V6.368C156.286 5.408 156.27 4.656 156.238 4.112C156.222 3.552 156.182 3.128 156.118 2.84C156.07 2.632 156.014 2.472 155.95 2.36C155.886 2.232 155.782 2.136 155.638 2.072C155.51 1.992 155.326 1.944 155.086 1.928C154.862 1.896 154.574 1.88 154.222 1.88V0.991999L159.574 0.079999V8.936H159.67C160.166 8.28 160.718 7.8 161.326 7.496C161.95 7.192 162.694 7.04 163.558 7.04C165.126 7.04 166.342 7.52 167.206 8.48C167.622 8.96 167.95 9.544 168.19 10.232C168.43 10.904 168.55 11.608 168.55 12.344V16.064C168.55 16.736 168.566 17.264 168.598 17.648C168.63 18.016 168.71 18.304 168.838 18.512C168.982 18.704 169.19 18.832 169.462 18.896C169.734 18.96 170.11 19.008 170.59 19.04V20H163.078V19.04C163.558 19.024 163.934 18.984 164.206 18.92C164.494 18.84 164.71 18.704 164.854 18.512C165.014 18.32 165.11 18.048 165.142 17.696C165.19 17.328 165.214 16.84 165.214 16.232V13.28C165.214 11.584 165.03 10.384 164.662 9.68C164.294 8.976 163.662 8.624 162.766 8.624C161.806 8.624 161.046 8.976 160.486 9.68C160.214 10.048 159.998 10.504 159.838 11.048C159.694 11.592 159.622 12.2 159.622 12.872V16.064ZM178.77 7.04C179.73 7.04 180.634 7.208 181.482 7.544C182.346 7.864 183.098 8.312 183.738 8.888C184.394 9.464 184.906 10.152 185.274 10.952C185.658 11.736 185.85 12.6 185.85 13.544C185.85 14.52 185.658 15.416 185.274 16.232C184.906 17.048 184.394 17.752 183.738 18.344C183.098 18.936 182.346 19.4 181.482 19.736C180.634 20.072 179.73 20.24 178.77 20.24C177.826 20.24 176.93 20.08 176.082 19.76C175.234 19.424 174.49 18.96 173.85 18.368C173.21 17.776 172.706 17.072 172.338 16.256C171.97 15.424 171.786 14.52 171.786 13.544C171.786 12.6 171.97 11.728 172.338 10.928C172.706 10.128 173.21 9.44 173.85 8.864C174.49 8.288 175.234 7.84 176.082 7.52C176.93 7.2 177.826 7.04 178.77 7.04ZM178.77 8.432C178.29 8.432 177.85 8.56 177.45 8.816C177.05 9.056 176.706 9.4 176.418 9.848C176.146 10.296 175.93 10.84 175.77 11.48C175.626 12.104 175.554 12.8 175.554 13.568C175.554 14.368 175.626 15.088 175.77 15.728C175.93 16.368 176.146 16.912 176.418 17.36C176.706 17.808 177.042 18.16 177.426 18.416C177.826 18.656 178.274 18.776 178.77 18.776C179.266 18.776 179.714 18.656 180.114 18.416C180.53 18.16 180.882 17.808 181.17 17.36C181.458 16.896 181.682 16.344 181.842 15.704C182.002 15.064 182.082 14.352 182.082 13.568C182.082 12.8 182.002 12.104 181.842 11.48C181.682 10.856 181.458 10.32 181.17 9.872C180.882 9.408 180.53 9.056 180.114 8.816C179.714 8.56 179.266 8.432 178.77 8.432ZM192.934 16.28C192.934 16.904 192.958 17.4 193.006 17.768C193.07 18.12 193.19 18.392 193.366 18.584C193.542 18.776 193.798 18.904 194.134 18.968C194.47 19.016 194.918 19.04 195.478 19.04V20H187.462V19.04C187.942 19.008 188.326 18.96 188.614 18.896C188.902 18.832 189.118 18.704 189.262 18.512C189.406 18.32 189.494 18.048 189.526 17.696C189.574 17.328 189.598 16.84 189.598 16.232V13.304C189.598 12.312 189.574 11.52 189.526 10.928C189.478 10.336 189.374 9.88 189.214 9.56C189.054 9.24 188.822 9.032 188.518 8.936C188.23 8.824 187.846 8.768 187.366 8.768V7.928L192.166 7.04L192.55 9.8H192.646C193.078 8.952 193.646 8.28 194.35 7.784C195.054 7.288 195.798 7.04 196.582 7.04C197.19 7.04 197.686 7.192 198.07 7.496C198.454 7.8 198.646 8.184 198.646 8.648C198.646 9.16 198.494 9.592 198.19 9.944C197.902 10.296 197.502 10.472 196.99 10.472C196.75 10.472 196.534 10.424 196.342 10.328C196.15 10.232 195.974 10.128 195.814 10.016C195.67 9.888 195.518 9.776 195.358 9.68C195.214 9.568 195.062 9.512 194.902 9.512C194.598 9.512 194.31 9.712 194.038 10.112C193.766 10.512 193.542 11.048 193.366 11.72C193.238 12.2 193.134 12.744 193.054 13.352C192.974 13.944 192.934 14.536 192.934 15.128V16.28Z" fill="black"/>
</svg>
